<?xml version="1.0" encoding="UTF-8"?>
<svg xmlns="http://www.w3.org/2000/svg" width="1024" height="1024" viewBox="0 0 1024 1024">
  <defs>
    <!-- warm cream / parchment ground -->
    <radialGradient id="cream" cx="42%" cy="34%" r="80%">
      <stop offset="0%" stop-color="#F7F4EC"/>
      <stop offset="60%" stop-color="#F1ECDE"/>
      <stop offset="100%" stop-color="#E7E0CE"/>
    </radialGradient>
    <!-- coral/clay burst -->
    <radialGradient id="coral" cx="50%" cy="46%" r="62%">
      <stop offset="0%" stop-color="#EA9B6C"/>
      <stop offset="55%" stop-color="#D27245"/>
      <stop offset="100%" stop-color="#B5542C"/>
    </radialGradient>
    <radialGradient id="coralMin" cx="50%" cy="40%" r="62%">
      <stop offset="0%" stop-color="#E08858"/>
      <stop offset="100%" stop-color="#C26138"/>
    </radialGradient>
    <!-- soft inner core glow -->
    <radialGradient id="core" cx="50%" cy="50%" r="50%">
      <stop offset="0%" stop-color="#F4C9A6"/>
      <stop offset="100%" stop-color="#F4C9A6" stop-opacity="0"/>
    </radialGradient>
    <clipPath id="tile"><path d="M0,229
    C0,126.47670000000001 126.47670000000001,0 229,0
    L795,0
    C897.5233,0 1024,126.47670000000001 1024,229
    L1024,795
    C1024,897.5233 897.5233,1024 795,1024
    L229,1024
    C126.47670000000001,1024 0,897.5233 0,795
    Z"/></clipPath>
    <radialGradient id="vig" cx="50%" cy="48%" r="75%">
      <stop offset="72%" stop-color="#000000" stop-opacity="0"/>
      <stop offset="100%" stop-color="#8A6A3A" stop-opacity="0.16"/>
    </radialGradient>
  </defs>

  <g clip-path="url(#tile)">
    <rect width="1024" height="1024" fill="url(#cream)"/>

    <!-- subtle geometric container: hexagon + faint guide rings -->
    <g fill="none" stroke="#C96442" stroke-opacity="0.10" stroke-width="2"><circle cx="512" cy="512" r="244"/><circle cx="512" cy="512" r="266"/></g>
    <path d="M512.00,262.00L728.51,387.00L728.51,637.00L512.00,762.00L295.49,637.00L295.49,387.00Z" fill="none" stroke="#C96442" stroke-width="4" stroke-opacity="0.14"/>

    <!-- core glow -->
    <circle cx="512" cy="512" r="150" fill="url(#core)"/>

    <!-- the burst -->
    <g fill="url(#coral)"><polygon points="664.6,552.9 598.7,551.8 541.0,519.8 606.9,520.9"/><polygon points="623.7,623.7 567.2,589.8 533.2,533.2 589.8,567.2"/><polygon points="552.9,664.6 520.9,606.9 519.8,541.0 551.8,598.7"/><polygon points="471.1,664.6 472.2,598.7 504.2,541.0 503.1,606.9"/><polygon points="400.3,623.7 434.2,567.2 490.8,533.2 456.8,589.8"/><polygon points="359.4,552.9 417.1,520.9 483.0,519.8 425.3,551.8"/><polygon points="359.4,471.1 425.3,472.2 483.0,504.2 417.1,503.1"/><polygon points="400.3,400.3 456.8,434.2 490.8,490.8 434.2,456.8"/><polygon points="471.1,359.4 503.1,417.1 504.2,483.0 472.2,425.3"/><polygon points="552.9,359.4 551.8,425.3 519.8,483.0 520.9,417.1"/><polygon points="623.7,400.3 589.8,456.8 533.2,490.8 567.2,434.2"/><polygon points="664.6,471.1 606.9,503.1 541.0,504.2 598.7,472.2"/></g>
    <g fill="url(#coralMin)"><polygon points="664.6,552.9 598.7,551.8 541.0,519.8 606.9,520.9"/><polygon points="623.7,623.7 567.2,589.8 533.2,533.2 589.8,567.2"/><polygon points="552.9,664.6 520.9,606.9 519.8,541.0 551.8,598.7"/><polygon points="471.1,664.6 472.2,598.7 504.2,541.0 503.1,606.9"/><polygon points="400.3,623.7 434.2,567.2 490.8,533.2 456.8,589.8"/><polygon points="359.4,552.9 417.1,520.9 483.0,519.8 425.3,551.8"/><polygon points="359.4,471.1 425.3,472.2 483.0,504.2 417.1,503.1"/><polygon points="400.3,400.3 456.8,434.2 490.8,490.8 434.2,456.8"/><polygon points="471.1,359.4 503.1,417.1 504.2,483.0 472.2,425.3"/><polygon points="552.9,359.4 551.8,425.3 519.8,483.0 520.9,417.1"/><polygon points="623.7,400.3 589.8,456.8 533.2,490.8 567.2,434.2"/><polygon points="664.6,471.1 606.9,503.1 541.0,504.2 598.7,472.2"/></g>
    <g fill="url(#coral)"><polygon points="764.0,512.0 653.0,538.0 542.0,512.0 653.0,486.0"/><polygon points="730.2,638.0 621.1,605.0 538.0,527.0 647.1,560.0"/><polygon points="638.0,730.2 560.0,647.1 527.0,538.0 605.0,621.1"/><polygon points="512.0,764.0 486.0,653.0 512.0,542.0 538.0,653.0"/><polygon points="386.0,730.2 419.0,621.1 497.0,538.0 464.0,647.1"/><polygon points="293.8,638.0 376.9,560.0 486.0,527.0 402.9,605.0"/><polygon points="260.0,512.0 371.0,486.0 482.0,512.0 371.0,538.0"/><polygon points="293.8,386.0 402.9,419.0 486.0,497.0 376.9,464.0"/><polygon points="386.0,293.8 464.0,376.9 497.0,486.0 419.0,402.9"/><polygon points="512.0,260.0 538.0,371.0 512.0,482.0 486.0,371.0"/><polygon points="638.0,293.8 605.0,402.9 527.0,486.0 560.0,376.9"/><polygon points="730.2,386.0 647.1,464.0 538.0,497.0 621.1,419.0"/></g>

    <!-- central hub -->
    <circle cx="512" cy="512" r="34" fill="url(#coral)"/>

    <rect width="1024" height="1024" fill="url(#vig)"/>
  </g>
  <path d="M0,229
    C0,126.47670000000001 126.47670000000001,0 229,0
    L795,0
    C897.5233,0 1024,126.47670000000001 1024,229
    L1024,795
    C1024,897.5233 897.5233,1024 795,1024
    L229,1024
    C126.47670000000001,1024 0,897.5233 0,795
    Z" fill="none" stroke="#C9B98E" stroke-opacity="0.5" stroke-width="2"/>
</svg>